<svg width="171" height="69" viewBox="0 0 171 69" fill="none" xmlns="http://www.w3.org/2000/svg">
<mask id="path-1-outside-1" maskUnits="userSpaceOnUse" x="-0.216003" y="0.208" width="171" height="69" fill="black">
<rect fill="white" x="-0.216003" y="0.208" width="171" height="69"/>
<path fill-rule="evenodd" clip-rule="evenodd" d="M24.016 22.696C22.768 21.128 21.248 20.184 19.456 19.864C21.184 19.256 22.56 18.312 23.584 17.032C24.608 15.752 25.12 14.152 25.12 12.232C25.12 10.632 24.704 9.192 23.872 7.912C23.04 6.6 21.808 5.56 20.176 4.792C18.544 4.024 16.592 3.64 14.32 3.64H1.6V37H14.944C17.152 37 19.088 36.616 20.752 35.848C22.416 35.048 23.68 33.976 24.544 32.632C25.44 31.256 25.888 29.72 25.888 28.024C25.888 26.04 25.264 24.264 24.016 22.696ZM13.84 17.656H7.072V8.104H13.84C15.632 8.104 17.024 8.536 18.016 9.4C19.04 10.232 19.552 11.4 19.552 12.904C19.552 14.44 19.04 15.624 18.016 16.456C17.024 17.256 15.632 17.656 13.84 17.656ZM18.832 31.192C17.776 32.088 16.32 32.536 14.464 32.536H7.072V22.12H14.272C16.128 22.12 17.616 22.6 18.736 23.56C19.856 24.52 20.416 25.816 20.416 27.448C20.416 29.048 19.888 30.296 18.832 31.192ZM36.5384 35.752C38.5544 36.872 40.8104 37.432 43.3064 37.432C45.8344 37.432 48.1384 36.872 50.2184 35.752C52.3304 34.6 53.9944 32.984 55.2104 30.904C56.4264 28.824 57.0344 26.44 57.0344 23.752C57.0344 21.064 56.4424 18.68 55.2584 16.6C54.0744 14.52 52.4584 12.92 50.4104 11.8C48.3624 10.68 46.0744 10.12 43.5464 10.12C41.0184 10.12 38.7304 10.68 36.6824 11.8C34.6344 12.92 33.0184 14.52 31.8344 16.6C30.6504 18.68 30.0584 21.064 30.0584 23.752C30.0584 26.472 30.6344 28.872 31.7864 30.952C32.9384 33 34.5224 34.6 36.5384 35.752ZM47.2424 31.672C46.0264 32.344 44.7144 32.68 43.3064 32.68C41.0984 32.68 39.2584 31.912 37.7864 30.376C36.3464 28.808 35.6264 26.6 35.6264 23.752C35.6264 21.832 35.9784 20.216 36.6824 18.904C37.3864 17.56 38.3304 16.552 39.5144 15.88C40.7304 15.208 42.0424 14.872 43.4504 14.872C44.8584 14.872 46.1704 15.208 47.3864 15.88C48.6024 16.552 49.5784 17.56 50.3144 18.904C51.0504 20.216 51.4184 21.832 51.4184 23.752C51.4184 25.672 51.0344 27.304 50.2664 28.648C49.4984 29.992 48.4904 31 47.2424 31.672ZM67.9157 37V1.48H62.4437V37H67.9157ZM79.084 36.328C80.748 37.064 82.62 37.432 84.7 37.432C86.748 37.432 88.524 37.096 90.028 36.424C91.564 35.752 92.748 34.824 93.58 33.64C94.412 32.456 94.828 31.112 94.828 29.608C94.796 27.912 94.332 26.552 93.436 25.528C92.54 24.504 91.468 23.736 90.22 23.224C89.004 22.68 87.436 22.152 85.516 21.64C84.076 21.224 82.988 20.888 82.252 20.632C81.516 20.344 80.892 19.96 80.38 19.48C79.868 19 79.612 18.408 79.612 17.704C79.612 16.808 79.996 16.088 80.764 15.544C81.532 15 82.636 14.728 84.076 14.728C85.548 14.728 86.716 15.08 87.58 15.784C88.444 16.488 88.924 17.432 89.02 18.616H94.492C94.364 15.992 93.372 13.928 91.516 12.424C89.692 10.888 87.276 10.12 84.268 10.12C82.252 10.12 80.46 10.456 78.892 11.128C77.356 11.8 76.172 12.728 75.34 13.912C74.508 15.064 74.092 16.344 74.092 17.752C74.092 19.48 74.54 20.872 75.436 21.928C76.364 22.984 77.452 23.768 78.7 24.28C79.948 24.792 81.564 25.32 83.548 25.864C85.596 26.44 87.084 26.968 88.012 27.448C88.972 27.928 89.452 28.664 89.452 29.656C89.452 30.584 89.02 31.352 88.156 31.96C87.324 32.536 86.14 32.824 84.604 32.824C83.132 32.824 81.9 32.456 80.908 31.72C79.948 30.952 79.42 30.008 79.324 28.888H73.66C73.724 30.488 74.236 31.944 75.196 33.256C76.156 34.536 77.452 35.56 79.084 36.328ZM105.445 35.752C107.461 36.872 109.717 37.432 112.213 37.432C114.741 37.432 117.045 36.872 119.125 35.752C121.237 34.6 122.901 32.984 124.117 30.904C125.333 28.824 125.941 26.44 125.941 23.752C125.941 21.064 125.349 18.68 124.165 16.6C122.981 14.52 121.365 12.92 119.317 11.8C117.269 10.68 114.981 10.12 112.453 10.12C109.925 10.12 107.637 10.68 105.589 11.8C103.541 12.92 101.925 14.52 100.741 16.6C99.5566 18.68 98.9646 21.064 98.9646 23.752C98.9646 26.472 99.5406 28.872 100.693 30.952C101.845 33 103.429 34.6 105.445 35.752ZM116.149 31.672C114.933 32.344 113.621 32.68 112.213 32.68C110.005 32.68 108.165 31.912 106.693 30.376C105.253 28.808 104.533 26.6 104.533 23.752C104.533 21.832 104.885 20.216 105.589 18.904C106.293 17.56 107.237 16.552 108.421 15.88C109.637 15.208 110.949 14.872 112.357 14.872C113.765 14.872 115.077 15.208 116.293 15.88C117.509 16.552 118.485 17.56 119.221 18.904C119.957 20.216 120.325 21.832 120.325 23.752C120.325 25.672 119.941 27.304 119.173 28.648C118.405 29.992 117.397 31 116.149 31.672ZM112.077 65.0847L117.133 67.8277L121.526 66.3346L114.644 62.6915C115.796 61.241 116.521 59.5974 116.821 57.7607C117.134 55.8968 116.961 53.9954 116.302 52.0563C115.601 49.9961 114.499 48.3092 112.993 46.9958C111.488 45.6824 109.752 44.8527 107.787 44.5067C105.835 44.1336 103.87 44.2834 101.89 44.9562C99.931 45.6221 98.2811 46.7011 96.9406 48.1932C95.6134 49.6582 94.7431 51.3735 94.3297 53.3391C93.9364 55.2978 94.0899 57.3073 94.7901 59.3676C95.4903 61.4278 96.5966 63.1248 98.1088 64.4584C99.6344 65.765 101.373 66.6048 103.325 66.9779C105.29 67.3239 107.253 67.1639 109.212 66.498C110.302 66.1273 111.258 65.6562 112.077 65.0847ZM100.644 61.9744C99.6334 60.9886 98.8636 59.7181 98.335 58.1628C97.8063 56.6075 97.6459 55.1411 97.8537 53.7636C98.0817 52.3793 98.6347 51.1887 99.5126 50.1918C100.39 49.195 101.526 48.4597 102.92 47.986C104.314 47.5123 105.662 47.4032 106.966 47.6586C108.269 47.9141 109.423 48.5246 110.427 49.4902C111.452 50.4489 112.228 51.7059 112.757 53.2612C113.285 54.8164 113.439 56.2964 113.218 57.7009C113.01 59.0784 112.471 60.2756 111.6 61.2927C110.722 62.2896 109.586 63.0248 108.192 63.4985C106.799 63.9722 105.45 64.0813 104.146 63.8259C102.836 63.5502 101.669 62.9331 100.644 61.9744ZM138.502 56.3065L132.828 39.6124L129.374 40.7863L132.535 50.0877C133.043 51.5824 133.051 52.8642 132.558 53.933C132.078 54.9747 131.192 55.7153 129.899 56.1547C128.606 56.594 127.453 56.5468 126.438 56.0131C125.416 55.4592 124.651 54.4348 124.143 52.9401L120.981 43.6387L117.558 44.8023L120.894 54.6188C121.409 56.1337 122.141 57.3269 123.091 58.1983C124.06 59.0629 125.153 59.5928 126.369 59.7881C127.604 59.9764 128.879 59.8475 130.191 59.4013C131.181 59.0649 132.045 58.5572 132.783 57.8783C133.535 57.1722 134.066 56.3832 134.378 55.5111L135.048 57.4804L138.502 56.3065ZM136.599 35.1537C137.167 35.4337 137.764 35.4673 138.39 35.2545C138.996 35.0485 139.439 34.6614 139.719 34.093C139.999 33.5247 140.033 32.9275 139.82 32.3013C139.607 31.6752 139.217 31.2221 138.648 30.9421C138.08 30.6621 137.493 30.625 136.887 30.831C136.261 31.0438 135.808 31.4344 135.528 32.0027C135.248 32.571 135.214 33.1683 135.427 33.7944C135.64 34.4206 136.03 34.8737 136.599 35.1537ZM146.513 53.5837L140.839 36.8896L137.385 38.0635L143.059 54.7576L146.513 53.5837ZM160.724 45.6103L153.15 48.1847L156.966 34.5516L156.008 31.7339L144.434 35.6675L145.392 38.4852L152.997 35.9006L149.151 49.544L150.108 52.3617L161.682 48.428L160.724 45.6103ZM167.085 39.4941L162.485 24.6658L158.819 25.9118L164.207 40.4724L167.085 39.4941ZM166.195 46.4211C166.763 46.7011 167.36 46.7347 167.987 46.5219C168.593 46.3159 169.035 45.9288 169.316 45.3604C169.596 44.7921 169.629 44.1949 169.416 43.5687C169.203 42.9425 168.813 42.4895 168.245 42.2095C167.676 41.9294 167.089 41.8924 166.483 42.0984C165.857 42.3112 165.404 42.7018 165.124 43.2701C164.844 43.8384 164.81 44.4357 165.023 45.0618C165.236 45.688 165.626 46.1411 166.195 46.4211Z"/>
</mask>
<path fill-rule="evenodd" clip-rule="evenodd" d="M24.016 22.696C22.768 21.128 21.248 20.184 19.456 19.864C21.184 19.256 22.56 18.312 23.584 17.032C24.608 15.752 25.12 14.152 25.12 12.232C25.12 10.632 24.704 9.192 23.872 7.912C23.04 6.6 21.808 5.56 20.176 4.792C18.544 4.024 16.592 3.64 14.32 3.64H1.6V37H14.944C17.152 37 19.088 36.616 20.752 35.848C22.416 35.048 23.68 33.976 24.544 32.632C25.44 31.256 25.888 29.72 25.888 28.024C25.888 26.04 25.264 24.264 24.016 22.696ZM13.84 17.656H7.072V8.104H13.84C15.632 8.104 17.024 8.536 18.016 9.4C19.04 10.232 19.552 11.4 19.552 12.904C19.552 14.44 19.04 15.624 18.016 16.456C17.024 17.256 15.632 17.656 13.84 17.656ZM18.832 31.192C17.776 32.088 16.32 32.536 14.464 32.536H7.072V22.12H14.272C16.128 22.12 17.616 22.6 18.736 23.56C19.856 24.52 20.416 25.816 20.416 27.448C20.416 29.048 19.888 30.296 18.832 31.192ZM36.5384 35.752C38.5544 36.872 40.8104 37.432 43.3064 37.432C45.8344 37.432 48.1384 36.872 50.2184 35.752C52.3304 34.6 53.9944 32.984 55.2104 30.904C56.4264 28.824 57.0344 26.44 57.0344 23.752C57.0344 21.064 56.4424 18.68 55.2584 16.6C54.0744 14.52 52.4584 12.92 50.4104 11.8C48.3624 10.68 46.0744 10.12 43.5464 10.12C41.0184 10.12 38.7304 10.68 36.6824 11.8C34.6344 12.92 33.0184 14.52 31.8344 16.6C30.6504 18.68 30.0584 21.064 30.0584 23.752C30.0584 26.472 30.6344 28.872 31.7864 30.952C32.9384 33 34.5224 34.6 36.5384 35.752ZM47.2424 31.672C46.0264 32.344 44.7144 32.68 43.3064 32.68C41.0984 32.68 39.2584 31.912 37.7864 30.376C36.3464 28.808 35.6264 26.6 35.6264 23.752C35.6264 21.832 35.9784 20.216 36.6824 18.904C37.3864 17.56 38.3304 16.552 39.5144 15.88C40.7304 15.208 42.0424 14.872 43.4504 14.872C44.8584 14.872 46.1704 15.208 47.3864 15.88C48.6024 16.552 49.5784 17.56 50.3144 18.904C51.0504 20.216 51.4184 21.832 51.4184 23.752C51.4184 25.672 51.0344 27.304 50.2664 28.648C49.4984 29.992 48.4904 31 47.2424 31.672ZM67.9157 37V1.48H62.4437V37H67.9157ZM79.084 36.328C80.748 37.064 82.62 37.432 84.7 37.432C86.748 37.432 88.524 37.096 90.028 36.424C91.564 35.752 92.748 34.824 93.58 33.64C94.412 32.456 94.828 31.112 94.828 29.608C94.796 27.912 94.332 26.552 93.436 25.528C92.54 24.504 91.468 23.736 90.22 23.224C89.004 22.68 87.436 22.152 85.516 21.64C84.076 21.224 82.988 20.888 82.252 20.632C81.516 20.344 80.892 19.96 80.38 19.48C79.868 19 79.612 18.408 79.612 17.704C79.612 16.808 79.996 16.088 80.764 15.544C81.532 15 82.636 14.728 84.076 14.728C85.548 14.728 86.716 15.08 87.58 15.784C88.444 16.488 88.924 17.432 89.02 18.616H94.492C94.364 15.992 93.372 13.928 91.516 12.424C89.692 10.888 87.276 10.12 84.268 10.12C82.252 10.12 80.46 10.456 78.892 11.128C77.356 11.8 76.172 12.728 75.34 13.912C74.508 15.064 74.092 16.344 74.092 17.752C74.092 19.48 74.54 20.872 75.436 21.928C76.364 22.984 77.452 23.768 78.7 24.28C79.948 24.792 81.564 25.32 83.548 25.864C85.596 26.44 87.084 26.968 88.012 27.448C88.972 27.928 89.452 28.664 89.452 29.656C89.452 30.584 89.02 31.352 88.156 31.96C87.324 32.536 86.14 32.824 84.604 32.824C83.132 32.824 81.9 32.456 80.908 31.72C79.948 30.952 79.42 30.008 79.324 28.888H73.66C73.724 30.488 74.236 31.944 75.196 33.256C76.156 34.536 77.452 35.56 79.084 36.328ZM105.445 35.752C107.461 36.872 109.717 37.432 112.213 37.432C114.741 37.432 117.045 36.872 119.125 35.752C121.237 34.6 122.901 32.984 124.117 30.904C125.333 28.824 125.941 26.44 125.941 23.752C125.941 21.064 125.349 18.68 124.165 16.6C122.981 14.52 121.365 12.92 119.317 11.8C117.269 10.68 114.981 10.12 112.453 10.12C109.925 10.12 107.637 10.68 105.589 11.8C103.541 12.92 101.925 14.52 100.741 16.6C99.5566 18.68 98.9646 21.064 98.9646 23.752C98.9646 26.472 99.5406 28.872 100.693 30.952C101.845 33 103.429 34.6 105.445 35.752ZM116.149 31.672C114.933 32.344 113.621 32.68 112.213 32.68C110.005 32.68 108.165 31.912 106.693 30.376C105.253 28.808 104.533 26.6 104.533 23.752C104.533 21.832 104.885 20.216 105.589 18.904C106.293 17.56 107.237 16.552 108.421 15.88C109.637 15.208 110.949 14.872 112.357 14.872C113.765 14.872 115.077 15.208 116.293 15.88C117.509 16.552 118.485 17.56 119.221 18.904C119.957 20.216 120.325 21.832 120.325 23.752C120.325 25.672 119.941 27.304 119.173 28.648C118.405 29.992 117.397 31 116.149 31.672ZM112.077 65.0847L117.133 67.8277L121.526 66.3346L114.644 62.6915C115.796 61.241 116.521 59.5974 116.821 57.7607C117.134 55.8968 116.961 53.9954 116.302 52.0563C115.601 49.9961 114.499 48.3092 112.993 46.9958C111.488 45.6824 109.752 44.8527 107.787 44.5067C105.835 44.1336 103.87 44.2834 101.89 44.9562C99.931 45.6221 98.2811 46.7011 96.9406 48.1932C95.6134 49.6582 94.7431 51.3735 94.3297 53.3391C93.9364 55.2978 94.0899 57.3073 94.7901 59.3676C95.4903 61.4278 96.5966 63.1248 98.1088 64.4584C99.6344 65.765 101.373 66.6048 103.325 66.9779C105.29 67.3239 107.253 67.1639 109.212 66.498C110.302 66.1273 111.258 65.6562 112.077 65.0847ZM100.644 61.9744C99.6334 60.9886 98.8636 59.7181 98.335 58.1628C97.8063 56.6075 97.6459 55.1411 97.8537 53.7636C98.0817 52.3793 98.6347 51.1887 99.5126 50.1918C100.39 49.195 101.526 48.4597 102.92 47.986C104.314 47.5123 105.662 47.4032 106.966 47.6586C108.269 47.9141 109.423 48.5246 110.427 49.4902C111.452 50.4489 112.228 51.7059 112.757 53.2612C113.285 54.8164 113.439 56.2964 113.218 57.7009C113.01 59.0784 112.471 60.2756 111.6 61.2927C110.722 62.2896 109.586 63.0248 108.192 63.4985C106.799 63.9722 105.45 64.0813 104.146 63.8259C102.836 63.5502 101.669 62.9331 100.644 61.9744ZM138.502 56.3065L132.828 39.6124L129.374 40.7863L132.535 50.0877C133.043 51.5824 133.051 52.8642 132.558 53.933C132.078 54.9747 131.192 55.7153 129.899 56.1547C128.606 56.594 127.453 56.5468 126.438 56.0131C125.416 55.4592 124.651 54.4348 124.143 52.9401L120.981 43.6387L117.558 44.8023L120.894 54.6188C121.409 56.1337 122.141 57.3269 123.091 58.1983C124.06 59.0629 125.153 59.5928 126.369 59.7881C127.604 59.9764 128.879 59.8475 130.191 59.4013C131.181 59.0649 132.045 58.5572 132.783 57.8783C133.535 57.1722 134.066 56.3832 134.378 55.5111L135.048 57.4804L138.502 56.3065ZM136.599 35.1537C137.167 35.4337 137.764 35.4673 138.39 35.2545C138.996 35.0485 139.439 34.6614 139.719 34.093C139.999 33.5247 140.033 32.9275 139.82 32.3013C139.607 31.6752 139.217 31.2221 138.648 30.9421C138.08 30.6621 137.493 30.625 136.887 30.831C136.261 31.0438 135.808 31.4344 135.528 32.0027C135.248 32.571 135.214 33.1683 135.427 33.7944C135.64 34.4206 136.03 34.8737 136.599 35.1537ZM146.513 53.5837L140.839 36.8896L137.385 38.0635L143.059 54.7576L146.513 53.5837ZM160.724 45.6103L153.15 48.1847L156.966 34.5516L156.008 31.7339L144.434 35.6675L145.392 38.4852L152.997 35.9006L149.151 49.544L150.108 52.3617L161.682 48.428L160.724 45.6103ZM167.085 39.4941L162.485 24.6658L158.819 25.9118L164.207 40.4724L167.085 39.4941ZM166.195 46.4211C166.763 46.7011 167.36 46.7347 167.987 46.5219C168.593 46.3159 169.035 45.9288 169.316 45.3604C169.596 44.7921 169.629 44.1949 169.416 43.5687C169.203 42.9425 168.813 42.4895 168.245 42.2095C167.676 41.9294 167.089 41.8924 166.483 42.0984C165.857 42.3112 165.404 42.7018 165.124 43.2701C164.844 43.8384 164.81 44.4357 165.023 45.0618C165.236 45.688 165.626 46.1411 166.195 46.4211Z" fill="white"/>
<path d="M19.456 19.864L19.1241 18.9207L15.5423 20.1809L19.2802 20.8484L19.456 19.864ZM24.016 22.696L24.7984 22.0733L24.7984 22.0733L24.016 22.696ZM23.584 17.032L24.3649 17.6567L24.3649 17.6567L23.584 17.032ZM23.872 7.912L23.0274 8.44758L23.0336 8.45699L23.872 7.912ZM20.176 4.792L19.7502 5.69682L19.7502 5.69682L20.176 4.792ZM1.6 3.64V2.64H0.599997V3.64H1.6ZM1.6 37H0.599997V38H1.6V37ZM20.752 35.848L21.1711 36.756L21.1782 36.7527L21.1853 36.7493L20.752 35.848ZM24.544 32.632L23.706 32.0863L23.7028 32.0912L24.544 32.632ZM7.072 17.656H6.072V18.656H7.072V17.656ZM7.072 8.104V7.104H6.072V8.104H7.072ZM18.016 9.4L17.3592 10.1541L17.3721 10.1653L17.3854 10.1761L18.016 9.4ZM18.016 16.456L18.6438 17.2344L18.6466 17.2321L18.016 16.456ZM7.072 32.536H6.072V33.536H7.072V32.536ZM7.072 22.12V21.12H6.072V22.12H7.072ZM18.736 23.56L19.3868 22.8007L19.3868 22.8007L18.736 23.56ZM36.5384 35.752L36.0422 36.6203L36.0527 36.6262L36.5384 35.752ZM50.2184 35.752L50.6925 36.6325L50.6972 36.6299L50.2184 35.752ZM55.2584 16.6L56.1274 16.1053L56.1274 16.1053L55.2584 16.6ZM50.4104 11.8L50.8902 10.9226L50.8902 10.9226L50.4104 11.8ZM36.6824 11.8L36.2026 10.9226L36.2026 10.9226L36.6824 11.8ZM31.7864 30.952L30.9116 31.4365L30.9148 31.4423L31.7864 30.952ZM47.2424 31.672L46.7682 30.7915L46.7587 30.7968L47.2424 31.672ZM37.7864 30.376L37.0498 31.0524L37.057 31.0602L37.0644 31.0679L37.7864 30.376ZM36.6824 18.904L37.5636 19.3768L37.5682 19.368L36.6824 18.904ZM39.5144 15.88L39.0307 15.0047L39.0208 15.0103L39.5144 15.88ZM47.3864 15.88L46.9027 16.7552L46.9027 16.7552L47.3864 15.88ZM50.3144 18.904L49.4372 19.3843L49.4422 19.3933L50.3144 18.904ZM50.2664 28.648L51.1346 29.1441L51.1346 29.1441L50.2664 28.648ZM67.9157 1.48H68.9157V0.480003H67.9157V1.48ZM67.9157 37V38H68.9157V37H67.9157ZM62.4437 1.48V0.480003H61.4437V1.48H62.4437ZM62.4437 37H61.4437V38H62.4437V37ZM79.084 36.328L78.6582 37.2328L78.6688 37.2378L78.6795 37.2425L79.084 36.328ZM90.028 36.424L89.6272 35.5078L89.6201 35.511L90.028 36.424ZM94.828 29.608H95.828V29.5986L95.8278 29.5891L94.828 29.608ZM93.436 25.528L92.6834 26.1865L92.6834 26.1865L93.436 25.528ZM90.22 23.224L89.8116 24.1368L89.8259 24.1432L89.8404 24.1492L90.22 23.224ZM85.516 21.64L85.2385 22.6007L85.2484 22.6036L85.2583 22.6062L85.516 21.64ZM82.252 20.632L81.8876 21.5632L81.9054 21.5702L81.9235 21.5765L82.252 20.632ZM80.38 19.48L79.6961 20.2095L79.6961 20.2095L80.38 19.48ZM80.764 15.544L81.342 16.36L81.342 16.36L80.764 15.544ZM87.58 15.784L86.9483 16.5592L86.9483 16.5592L87.58 15.784ZM89.02 18.616L88.0233 18.6968L88.0978 19.616H89.02V18.616ZM94.492 18.616V19.616H95.542L95.4908 18.5673L94.492 18.616ZM91.516 12.424L90.8719 13.1889L90.8791 13.195L90.8864 13.2009L91.516 12.424ZM78.892 11.128L78.4981 10.2088L78.4912 10.2118L78.892 11.128ZM75.34 13.912L76.1507 14.4975L76.1582 14.4869L75.34 13.912ZM75.436 21.928L74.6735 22.575L74.6791 22.5816L74.6848 22.5881L75.436 21.928ZM78.7 24.28L79.0796 23.3548L79.0796 23.3548L78.7 24.28ZM83.548 25.864L83.8187 24.9013L83.8124 24.8996L83.548 25.864ZM88.012 27.448L87.5525 28.3363L87.5648 28.3424L88.012 27.448ZM88.156 31.96L88.7252 32.7822L88.7315 32.7778L88.156 31.96ZM80.908 31.72L80.2833 32.5009L80.2975 32.5122L80.3121 32.5231L80.908 31.72ZM79.324 28.888L80.3203 28.8026L80.2419 27.888H79.324V28.888ZM73.66 28.888V27.888H72.6192L72.6608 28.928L73.66 28.888ZM75.196 33.256L74.3889 33.8466L74.396 33.856L75.196 33.256ZM105.445 35.752L104.948 36.6203L104.959 36.6262L105.445 35.752ZM119.125 35.752L119.599 36.6325L119.603 36.6299L119.125 35.752ZM124.117 30.904L123.253 30.3993L123.253 30.3993L124.117 30.904ZM124.165 16.6L123.296 17.0947L123.296 17.0947L124.165 16.6ZM119.317 11.8L118.837 12.6774L118.837 12.6774L119.317 11.8ZM105.589 11.8L106.068 12.6774L106.068 12.6774L105.589 11.8ZM100.693 30.952L99.8178 31.4365L99.821 31.4423L100.693 30.952ZM116.149 31.672L115.674 30.7915L115.665 30.7968L116.149 31.672ZM106.693 30.376L105.956 31.0524L105.963 31.0602L105.971 31.0679L106.693 30.376ZM105.589 18.904L106.47 19.3768L106.474 19.368L105.589 18.904ZM108.421 15.88L107.937 15.0047L107.927 15.0103L108.421 15.88ZM116.293 15.88L116.776 15.0048L116.776 15.0048L116.293 15.88ZM119.221 18.904L118.343 19.3843L118.348 19.3933L119.221 18.904ZM119.173 28.648L118.304 28.1519L118.304 28.1519L119.173 28.648ZM117.133 67.8277L116.656 68.7067L117.041 68.9153L117.455 68.7745L117.133 67.8277ZM112.077 65.0847L112.554 64.2057L112.012 63.9114L111.505 64.2644L112.077 65.0847ZM121.526 66.3346L121.848 67.2814L124.043 66.5353L121.994 65.4507L121.526 66.3346ZM114.644 62.6915L113.861 62.0696L113.112 63.0122L114.176 63.5753L114.644 62.6915ZM116.821 57.7607L115.835 57.5951L115.834 57.5997L116.821 57.7607ZM116.302 52.0563L117.248 51.7345L117.248 51.7345L116.302 52.0563ZM112.993 46.9958L112.336 47.7493L112.336 47.7493L112.993 46.9958ZM107.787 44.5067L107.599 45.4889L107.607 45.4902L107.614 45.4915L107.787 44.5067ZM101.89 44.9562L102.212 45.903L102.212 45.903L101.89 44.9562ZM96.9406 48.1932L97.6817 48.8646L97.6845 48.8615L96.9406 48.1932ZM94.3297 53.3391L93.351 53.1332L93.3492 53.1422L94.3297 53.3391ZM94.7901 59.3676L95.7369 59.0458L95.7369 59.0458L94.7901 59.3676ZM98.1088 64.4584L97.4474 65.2084L97.4529 65.2132L97.4584 65.2179L98.1088 64.4584ZM103.325 66.9779L103.137 67.9601L103.144 67.9614L103.152 67.9627L103.325 66.9779ZM109.212 66.498L109.534 67.4448L109.534 67.4448L109.212 66.498ZM98.335 58.1628L99.2818 57.841L99.2818 57.841L98.335 58.1628ZM100.644 61.9744L99.9462 62.6903L99.9536 62.6975L99.961 62.7045L100.644 61.9744ZM97.8537 53.7636L96.8669 53.6011L96.8649 53.6145L97.8537 53.7636ZM99.5126 50.1918L100.263 50.8527L100.263 50.8527L99.5126 50.1918ZM102.92 47.986L102.598 47.0392L102.598 47.0392L102.92 47.986ZM106.966 47.6586L107.158 46.6773L107.158 46.6773L106.966 47.6586ZM110.427 49.4902L109.734 50.211L109.744 50.2203L110.427 49.4902ZM112.757 53.2612L111.81 53.5829L111.81 53.583L112.757 53.2612ZM113.218 57.7009L112.23 57.5454L112.229 57.5517L113.218 57.7009ZM111.6 61.2927L112.35 61.9537L112.359 61.9432L111.6 61.2927ZM108.192 63.4985L107.871 62.5517L107.871 62.5517L108.192 63.4985ZM104.146 63.8259L103.941 64.8046L103.954 64.8072L104.146 63.8259ZM132.828 39.6124L133.775 39.2906L133.453 38.3438L132.506 38.6656L132.828 39.6124ZM138.502 56.3065L138.823 57.2533L139.77 56.9315L139.448 55.9847L138.502 56.3065ZM129.374 40.7863L129.052 39.8395L128.105 40.1613L128.427 41.1081L129.374 40.7863ZM132.535 50.0877L133.482 49.7659L133.482 49.7659L132.535 50.0877ZM132.558 53.933L131.65 53.5142L131.649 53.5148L132.558 53.933ZM129.899 56.1547L130.221 57.1015L130.221 57.1015L129.899 56.1547ZM126.438 56.0131L125.961 56.8923L125.972 56.8982L126.438 56.0131ZM124.143 52.9401L125.089 52.6183L125.089 52.6183L124.143 52.9401ZM120.981 43.6387L121.928 43.3169L121.606 42.3701L120.659 42.6919L120.981 43.6387ZM117.558 44.8023L117.236 43.8555L116.289 44.1773L116.611 45.1241L117.558 44.8023ZM120.894 54.6188L119.947 54.9406L119.947 54.9406L120.894 54.6188ZM123.091 58.1983L122.415 58.9351L122.42 58.94L122.425 58.9448L123.091 58.1983ZM126.369 59.7881L126.21 60.7754L126.218 60.7766L126.369 59.7881ZM130.191 59.4013L129.87 58.4545L129.87 58.4545L130.191 59.4013ZM132.783 57.8783L133.46 58.6143L133.468 58.607L132.783 57.8783ZM134.378 55.5111L135.325 55.1893L134.402 52.4745L133.437 55.1743L134.378 55.5111ZM135.048 57.4804L134.101 57.8022L134.423 58.749L135.369 58.4272L135.048 57.4804ZM138.39 35.2545L138.712 36.2013L138.712 36.2013L138.39 35.2545ZM136.599 35.1537L136.157 36.0507L136.157 36.0507L136.599 35.1537ZM139.719 34.093L138.822 33.6511L138.822 33.6511L139.719 34.093ZM139.82 32.3013L140.767 31.9795L140.767 31.9795L139.82 32.3013ZM138.648 30.9421L138.207 31.8391L138.207 31.8391L138.648 30.9421ZM136.887 30.831L136.565 29.8842L136.565 29.8842L136.887 30.831ZM135.528 32.0027L136.425 32.4447L136.425 32.4447L135.528 32.0027ZM140.839 36.8896L141.786 36.5678L141.464 35.621L140.517 35.9428L140.839 36.8896ZM146.513 53.5837L146.835 54.5305L147.781 54.2087L147.46 53.2619L146.513 53.5837ZM137.385 38.0635L137.063 37.1167L136.116 37.4385L136.438 38.3853L137.385 38.0635ZM143.059 54.7576L142.112 55.0794L142.434 56.0262L143.381 55.7044L143.059 54.7576ZM153.15 48.1847L152.187 47.9151L151.676 49.7419L153.472 49.1315L153.15 48.1847ZM160.724 45.6103L161.671 45.2885L161.349 44.3417L160.403 44.6635L160.724 45.6103ZM156.966 34.5516L157.929 34.8211L158.012 34.5229L157.913 34.2298L156.966 34.5516ZM156.008 31.7339L156.955 31.4121L156.633 30.4653L155.686 30.7871L156.008 31.7339ZM144.434 35.6675L144.113 34.7207L143.166 35.0425L143.488 35.9893L144.434 35.6675ZM145.392 38.4852L144.445 38.807L144.767 39.7538L145.714 39.432L145.392 38.4852ZM152.997 35.9006L153.959 36.1719L154.475 34.3419L152.675 34.9537L152.997 35.9006ZM149.151 49.544L148.188 49.2726L148.104 49.5716L148.204 49.8658L149.151 49.544ZM150.108 52.3617L149.162 52.6835L149.483 53.6303L150.43 53.3085L150.108 52.3617ZM161.682 48.428L162.004 49.3748L162.951 49.053L162.629 48.1062L161.682 48.428ZM162.485 24.6658L163.44 24.3695L163.135 23.3884L162.163 23.719L162.485 24.6658ZM167.085 39.4941L167.407 40.4409L168.329 40.1277L168.04 39.1978L167.085 39.4941ZM158.819 25.9118L158.497 24.965L157.524 25.2955L157.881 26.2588L158.819 25.9118ZM164.207 40.4724L163.269 40.8194L163.607 41.7325L164.529 41.4192L164.207 40.4724ZM167.987 46.5219L168.308 47.4687L168.308 47.4687L167.987 46.5219ZM166.195 46.4211L166.637 45.524L166.637 45.524L166.195 46.4211ZM169.316 45.3604L170.213 45.8024L170.213 45.8024L169.316 45.3604ZM168.245 42.2095L167.803 43.1065L167.803 43.1065L168.245 42.2095ZM166.483 42.0984L166.161 41.1516L166.161 41.1516L166.483 42.0984ZM165.124 43.2701L164.227 42.8281L164.227 42.8282L165.124 43.2701ZM165.023 45.0618L164.076 45.3836L164.076 45.3837L165.023 45.0618ZM19.2802 20.8484C20.8079 21.1212 22.1206 21.9204 23.2336 23.3187L24.7984 22.0733C23.4154 20.3356 21.6881 19.2468 19.6318 18.8796L19.2802 20.8484ZM22.8031 16.4073C21.9094 17.5245 20.6969 18.3673 19.1241 18.9207L19.7879 20.8073C21.6711 20.1447 23.2106 19.0995 24.3649 17.6567L22.8031 16.4073ZM24.12 12.232C24.12 13.9656 23.6618 15.3339 22.8031 16.4073L24.3649 17.6567C25.5542 16.1701 26.12 14.3384 26.12 12.232H24.12ZM23.0336 8.45699C23.7549 9.56677 24.12 10.8157 24.12 12.232H26.12C26.12 10.4483 25.6531 8.81724 24.7104 7.36702L23.0336 8.45699ZM19.7502 5.69682C21.2386 6.39725 22.3127 7.32034 23.0275 8.44755L24.7165 7.37646C23.7673 5.87967 22.3774 4.72275 20.6018 3.88718L19.7502 5.69682ZM14.32 4.64C16.4819 4.64 18.2813 5.00558 19.7502 5.69682L20.6018 3.88719C18.8067 3.04242 16.7021 2.64 14.32 2.64V4.64ZM1.6 4.64H14.32V2.64H1.6V4.64ZM2.6 37V3.64H0.599997V37H2.6ZM14.944 36H1.6V38H14.944V36ZM20.3329 34.94C18.8244 35.6363 17.0364 36 14.944 36V38C17.2676 38 19.3516 37.5957 21.1711 36.756L20.3329 34.94ZM23.7028 32.0912C22.9536 33.2567 21.8424 34.2142 20.3187 34.9468L21.1853 36.7493C22.9896 35.8818 24.4064 34.6953 25.3852 33.1728L23.7028 32.0912ZM24.888 28.024C24.888 29.533 24.4927 30.8782 23.706 32.0863L25.382 33.1777C26.3873 31.6338 26.888 29.907 26.888 28.024H24.888ZM23.2336 23.3187C24.3422 24.7117 24.888 26.2687 24.888 28.024H26.888C26.888 25.8113 26.1858 23.8163 24.7984 22.0733L23.2336 23.3187ZM7.072 18.656H13.84V16.656H7.072V18.656ZM6.072 8.104V17.656H8.072V8.104H6.072ZM13.84 7.104H7.072V9.104H13.84V7.104ZM18.6728 8.64592C17.4419 7.57386 15.7856 7.104 13.84 7.104V9.104C15.4784 9.104 16.6061 9.49814 17.3592 10.1541L18.6728 8.64592ZM20.552 12.904C20.552 11.1463 19.9388 9.6738 18.6466 8.62389L17.3854 10.1761C18.1412 10.7902 18.552 11.6537 18.552 12.904H20.552ZM18.6466 17.2321C19.9441 16.1779 20.552 14.6858 20.552 12.904H18.552C18.552 14.1942 18.1359 15.0701 17.3854 15.6799L18.6466 17.2321ZM13.84 18.656C15.7692 18.656 17.414 18.2261 18.6437 17.2344L17.3882 15.6776C16.634 16.2859 15.4948 16.656 13.84 16.656V18.656ZM14.464 33.536C16.4758 33.536 18.1888 33.0492 19.479 31.9545L18.185 30.4295C17.3632 31.1268 16.1642 31.536 14.464 31.536V33.536ZM7.072 33.536H14.464V31.536H7.072V33.536ZM6.072 22.12V32.536H8.072V22.12H6.072ZM14.272 21.12H7.072V23.12H14.272V21.12ZM19.3868 22.8007C18.0425 21.6485 16.3032 21.12 14.272 21.12V23.12C15.9528 23.12 17.1895 23.5515 18.0852 24.3193L19.3868 22.8007ZM21.416 27.448C21.416 25.559 20.7536 23.9723 19.3868 22.8007L18.0852 24.3193C18.9583 25.0677 19.416 26.073 19.416 27.448H21.416ZM19.479 31.9545C20.7949 30.838 21.416 29.2909 21.416 27.448H19.416C19.416 28.8051 18.9811 29.7541 18.185 30.4295L19.479 31.9545ZM43.3064 36.432C40.9659 36.432 38.8794 35.9086 37.024 34.8778L36.0527 36.6262C38.2294 37.8354 40.6548 38.432 43.3064 38.432V36.432ZM49.7443 34.8715C47.8201 35.9076 45.6808 36.432 43.3064 36.432V38.432C45.9879 38.432 48.4566 37.8364 50.6925 36.6325L49.7443 34.8715ZM54.3471 30.3993C53.2227 32.3225 51.6916 33.8094 49.7395 34.8741L50.6972 36.6299C52.9692 35.3906 54.766 33.6455 56.0737 31.4087L54.3471 30.3993ZM56.0344 23.752C56.0344 26.2836 55.4635 28.4896 54.3471 30.3993L56.0737 31.4087C57.3892 29.1584 58.0344 26.5964 58.0344 23.752H56.0344ZM54.3893 17.0947C55.4773 19.0061 56.0344 21.2157 56.0344 23.752H58.0344C58.0344 20.9123 57.4074 18.3539 56.1274 16.1053L54.3893 17.0947ZM49.9306 12.6774C51.8115 13.706 53.2946 15.1716 54.3893 17.0947L56.1274 16.1053C54.8541 13.8684 53.1052 12.134 50.8902 10.9226L49.9306 12.6774ZM43.5464 11.12C45.921 11.12 48.0417 11.6444 49.9306 12.6774L50.8902 10.9226C48.683 9.71558 46.2278 9.12 43.5464 9.12V11.12ZM37.1622 12.6774C39.051 11.6444 41.1718 11.12 43.5464 11.12V9.12C40.865 9.12 38.4097 9.71558 36.2026 10.9226L37.1622 12.6774ZM32.7034 17.0947C33.7981 15.1716 35.2812 13.706 37.1622 12.6774L36.2026 10.9226C33.9875 12.134 32.2386 13.8684 30.9653 16.1053L32.7034 17.0947ZM31.0584 23.752C31.0584 21.2157 31.6154 19.0061 32.7034 17.0947L30.9653 16.1053C29.6853 18.3539 29.0584 20.9123 29.0584 23.752H31.0584ZM32.6612 30.4675C31.6025 28.556 31.0584 26.3272 31.0584 23.752H29.0584C29.0584 26.6168 29.6663 29.188 30.9116 31.4365L32.6612 30.4675ZM37.0345 34.8838C35.1775 33.8226 33.7224 32.3541 32.6579 30.4617L30.9148 31.4423C32.1543 33.6459 33.8672 35.3774 36.0422 36.6202L37.0345 34.8838ZM43.3064 33.68C44.8812 33.68 46.3599 33.3022 47.7261 32.5472L46.7587 30.7968C45.6928 31.3858 44.5476 31.68 43.3064 31.68V33.68ZM37.0644 31.0679C38.7329 32.8089 40.8374 33.68 43.3064 33.68V31.68C41.3594 31.68 39.7839 31.0151 38.5084 29.6841L37.0644 31.0679ZM34.6264 23.752C34.6264 26.7643 35.3899 29.245 37.0498 31.0524L38.5229 29.6996C37.3028 28.3711 36.6264 26.4357 36.6264 23.752H34.6264ZM35.8012 18.4312C34.9999 19.9246 34.6264 21.7134 34.6264 23.752H36.6264C36.6264 21.9506 36.9569 20.5074 37.5635 19.3768L35.8012 18.4312ZM39.0208 15.0103C37.6511 15.7877 36.5791 16.946 35.7965 18.44L37.5682 19.368C38.1937 18.174 39.0097 17.3163 40.008 16.7497L39.0208 15.0103ZM43.4504 13.872C41.8756 13.872 40.3968 14.2498 39.0307 15.0048L39.9981 16.7552C41.0639 16.1662 42.2092 15.872 43.4504 15.872V13.872ZM47.8701 15.0048C46.5039 14.2498 45.0252 13.872 43.4504 13.872V15.872C44.6916 15.872 45.8368 16.1662 46.9027 16.7552L47.8701 15.0048ZM51.1915 18.4237C50.3741 16.9311 49.2688 15.7778 47.8701 15.0048L46.9027 16.7552C47.9359 17.3262 48.7826 18.1889 49.4373 19.3843L51.1915 18.4237ZM52.4184 23.752C52.4184 21.707 52.0264 19.912 51.1865 18.4148L49.4422 19.3933C50.0743 20.52 50.4184 21.957 50.4184 23.752H52.4184ZM51.1346 29.1441C52.0074 27.6168 52.4184 25.8046 52.4184 23.752H50.4184C50.4184 25.5394 50.0613 26.9912 49.3981 28.1519L51.1346 29.1441ZM47.7165 32.5525C49.1443 31.7837 50.2826 30.6351 51.1346 29.1441L49.3981 28.1519C48.7141 29.3489 47.8365 30.2163 46.7683 30.7915L47.7165 32.5525ZM66.9157 1.48V37H68.9157V1.48H66.9157ZM62.4437 2.48H67.9157V0.480003H62.4437V2.48ZM63.4437 37V1.48H61.4437V37H63.4437ZM67.9157 36H62.4437V38H67.9157V36ZM84.7 36.432C82.7394 36.432 81.0081 36.0856 79.4885 35.4135L78.6795 37.2425C80.4879 38.0424 82.5006 38.432 84.7 38.432V36.432ZM89.6201 35.511C88.2716 36.1135 86.6406 36.432 84.7 36.432V38.432C86.8554 38.432 88.7764 38.0785 90.4359 37.337L89.6201 35.511ZM92.7618 33.0651C92.0508 34.0768 91.0225 34.8974 89.6272 35.5078L90.4288 37.3402C92.1055 36.6066 93.4452 35.5712 94.3982 34.2149L92.7618 33.0651ZM93.828 29.608C93.828 30.9148 93.4706 32.0563 92.7618 33.0651L94.3982 34.2149C95.3534 32.8557 95.828 31.3092 95.828 29.608H93.828ZM92.6834 26.1865C93.3888 26.9927 93.7995 28.1066 93.8282 29.6269L95.8278 29.5891C95.7925 27.7174 95.2752 26.1113 94.1886 24.8695L92.6834 26.1865ZM89.8404 24.1492C90.9438 24.6018 91.8885 25.278 92.6834 26.1865L94.1886 24.8695C93.1915 23.73 91.9922 22.8702 90.5996 22.2988L89.8404 24.1492ZM85.2583 22.6062C87.1492 23.1105 88.6618 23.6224 89.8116 24.1368L90.6284 22.3112C89.3462 21.7376 87.7228 21.1935 85.7737 20.6738L85.2583 22.6062ZM81.9235 21.5765C82.6853 21.8415 83.7939 22.1834 85.2385 22.6007L85.7935 20.6793C84.3581 20.2646 83.2907 19.9345 82.5805 19.6875L81.9235 21.5765ZM79.6961 20.2095C80.3118 20.7868 81.0481 21.2347 81.8876 21.5632L82.6164 19.7008C81.9839 19.4533 81.4722 19.1332 81.0639 18.7505L79.6961 20.2095ZM78.612 17.704C78.612 18.6834 78.9817 19.5398 79.6961 20.2095L81.0639 18.7505C80.7543 18.4602 80.612 18.1326 80.612 17.704H78.612ZM80.186 14.728C79.1691 15.4483 78.612 16.4648 78.612 17.704H80.612C80.612 17.1512 80.8229 16.7277 81.342 16.36L80.186 14.728ZM84.076 13.728C82.5318 13.728 81.191 14.0161 80.186 14.728L81.342 16.36C81.873 15.9839 82.7402 15.728 84.076 15.728V13.728ZM88.2117 15.0088C87.1191 14.1185 85.7038 13.728 84.076 13.728V15.728C85.3922 15.728 86.3129 16.0415 86.9483 16.5592L88.2117 15.0088ZM90.0167 18.5352C89.9003 17.0996 89.3019 15.8971 88.2117 15.0088L86.9483 16.5592C87.5861 17.0789 87.9477 17.7644 88.0233 18.6968L90.0167 18.5352ZM94.492 17.616H89.02V19.616H94.492V17.616ZM90.8864 13.2009C92.4978 14.5067 93.3775 16.2932 93.4932 18.6647L95.4908 18.5673C95.3505 15.6908 94.2462 13.3493 92.1456 11.6471L90.8864 13.2009ZM84.268 11.12C87.1036 11.12 89.2713 11.8411 90.8719 13.1889L92.1601 11.6591C90.1127 9.93495 87.4484 9.12 84.268 9.12V11.12ZM79.2859 12.0471C80.7089 11.4373 82.3632 11.12 84.268 11.12V9.12C82.1408 9.12 80.2111 9.47473 78.4981 10.2089L79.2859 12.0471ZM76.1582 14.4869C76.8692 13.4752 77.8975 12.6546 79.2928 12.0442L78.4912 10.2118C76.8145 10.9454 75.4748 11.9808 74.5218 13.3371L76.1582 14.4869ZM75.092 17.752C75.092 16.5563 75.4405 15.4808 76.1507 14.4975L74.5293 13.3265C73.5755 14.6472 73.092 16.1317 73.092 17.752H75.092ZM76.1985 21.281C75.4909 20.4471 75.092 19.3036 75.092 17.752H73.092C73.092 19.6564 73.5891 21.2969 74.6735 22.575L76.1985 21.281ZM79.0796 23.3548C77.9803 22.9038 77.0178 22.2131 76.1872 21.2679L74.6848 22.5881C75.7102 23.7549 76.9237 24.6322 78.3204 25.2052L79.0796 23.3548ZM83.8124 24.8996C81.8495 24.3614 80.276 23.8457 79.0796 23.3548L78.3204 25.2052C79.62 25.7383 81.2784 26.2786 83.2836 26.8284L83.8124 24.8996ZM88.4714 26.5598C87.4489 26.0309 85.8795 25.4809 83.8187 24.9014L83.2773 26.8267C85.3125 27.3991 86.7191 27.9051 87.5526 28.3362L88.4714 26.5598ZM90.452 29.656C90.452 28.9918 90.2888 28.3646 89.9296 27.8137C89.5733 27.2674 89.0629 26.8554 88.4592 26.5536L87.5648 28.3424C87.9211 28.5206 88.1307 28.7166 88.2544 28.9063C88.3752 29.0914 88.452 29.3282 88.452 29.656H90.452ZM88.7315 32.7778C89.819 32.0125 90.452 30.9583 90.452 29.656H88.452C88.452 30.2097 88.221 30.6915 87.5805 31.1422L88.7315 32.7778ZM84.604 33.824C86.2446 33.824 87.6599 33.5197 88.7252 32.7822L87.5868 31.1378C86.9881 31.5523 86.0354 31.824 84.604 31.824V33.824ZM80.3121 32.5231C81.5076 33.4101 82.9597 33.824 84.604 33.824V31.824C83.3042 31.824 82.2923 31.5019 81.5038 30.9169L80.3121 32.5231ZM78.3277 28.9734C78.4494 30.3935 79.1316 31.5795 80.2833 32.5009L81.5327 30.9391C80.7644 30.3245 80.3906 29.6225 80.3203 28.8026L78.3277 28.9734ZM73.66 29.888H79.324V27.888H73.66V29.888ZM76.003 32.6655C75.1585 31.5112 74.7151 30.2463 74.6592 28.848L72.6608 28.928C72.7329 30.7297 73.3135 32.3768 74.389 33.8465L76.003 32.6655ZM79.5098 35.4232C78.0065 34.7158 76.8461 33.7895 75.996 32.656L74.396 33.856C75.4659 35.2825 76.8975 36.4043 78.6582 37.2328L79.5098 35.4232ZM112.213 36.432C109.872 36.432 107.786 35.9086 105.93 34.8778L104.959 36.6262C107.136 37.8354 109.561 38.432 112.213 38.432V36.432ZM118.651 34.8715C116.726 35.9076 114.587 36.432 112.213 36.432V38.432C114.894 38.432 117.363 37.8364 119.599 36.6325L118.651 34.8715ZM123.253 30.3993C122.129 32.3225 120.598 33.8094 118.646 34.8741L119.603 36.6299C121.875 35.3906 123.672 33.6455 124.98 31.4087L123.253 30.3993ZM124.941 23.752C124.941 26.2836 124.37 28.4896 123.253 30.3993L124.98 31.4087C126.295 29.1584 126.941 26.5964 126.941 23.752H124.941ZM123.296 17.0947C124.384 19.0061 124.941 21.2157 124.941 23.752H126.941C126.941 20.9123 126.314 18.3539 125.034 16.1053L123.296 17.0947ZM118.837 12.6774C120.718 13.706 122.201 15.1716 123.296 17.0947L125.034 16.1053C123.76 13.8684 122.011 12.134 119.796 10.9226L118.837 12.6774ZM112.453 11.12C114.827 11.12 116.948 11.6444 118.837 12.6774L119.796 10.9226C117.589 9.71558 115.134 9.12 112.453 9.12V11.12ZM106.068 12.6774C107.957 11.6444 110.078 11.12 112.453 11.12V9.12C109.771 9.12 107.316 9.71558 105.109 10.9226L106.068 12.6774ZM101.61 17.0947C102.704 15.1716 104.187 13.706 106.068 12.6774L105.109 10.9226C102.894 12.134 101.145 13.8684 99.8716 16.1053L101.61 17.0947ZM99.9646 23.752C99.9646 21.2157 100.522 19.0061 101.61 17.0947L99.8716 16.1053C98.5916 18.3539 97.9646 20.9123 97.9646 23.752H99.9646ZM101.567 30.4675C100.509 28.556 99.9646 26.3272 99.9646 23.752H97.9646C97.9646 26.6168 98.5725 29.188 99.8178 31.4365L101.567 30.4675ZM105.941 34.8838C104.084 33.8226 102.629 32.3541 101.564 30.4617L99.821 31.4423C101.061 33.6459 102.773 35.3774 104.948 36.6202L105.941 34.8838ZM112.213 33.68C113.787 33.68 115.266 33.3022 116.632 32.5472L115.665 30.7968C114.599 31.3858 113.454 31.68 112.213 31.68V33.68ZM105.971 31.0679C107.639 32.8089 109.744 33.68 112.213 33.68V31.68C110.266 31.68 108.69 31.0151 107.415 29.6841L105.971 31.0679ZM103.533 23.752C103.533 26.7643 104.296 29.245 105.956 31.0524L107.429 29.6996C106.209 28.3711 105.533 26.4357 105.533 23.752H103.533ZM104.707 18.4312C103.906 19.9246 103.533 21.7134 103.533 23.752H105.533C105.533 21.9506 105.863 20.5074 106.47 19.3768L104.707 18.4312ZM107.927 15.0103C106.557 15.7877 105.485 16.946 104.703 18.44L106.474 19.368C107.1 18.174 107.916 17.3163 108.914 16.7497L107.927 15.0103ZM112.357 13.872C110.782 13.872 109.303 14.2498 107.937 15.0048L108.904 16.7552C109.97 16.1662 111.115 15.872 112.357 15.872V13.872ZM116.776 15.0048C115.41 14.2498 113.931 13.872 112.357 13.872V15.872C113.598 15.872 114.743 16.1662 115.809 16.7552L116.776 15.0048ZM120.098 18.4237C119.28 16.9311 118.175 15.7778 116.776 15.0048L115.809 16.7552C116.842 17.3262 117.689 18.1889 118.344 19.3843L120.098 18.4237ZM121.325 23.752C121.325 21.707 120.933 19.912 120.093 18.4148L118.348 19.3933C118.981 20.52 119.325 21.957 119.325 23.752H121.325ZM120.041 29.1441C120.914 27.6168 121.325 25.8046 121.325 23.752H119.325C119.325 25.5394 118.968 26.9912 118.304 28.1519L120.041 29.1441ZM116.623 32.5525C118.051 31.7837 119.189 30.6351 120.041 29.1441L118.304 28.1519C117.62 29.3489 116.743 30.2163 115.675 30.7915L116.623 32.5525ZM117.61 66.9487L112.554 64.2057L111.6 65.9636L116.656 68.7067L117.61 66.9487ZM121.204 65.3878L116.811 66.8809L117.455 68.7745L121.848 67.2814L121.204 65.3878ZM114.176 63.5753L121.058 67.2184L121.994 65.4507L115.112 61.8077L114.176 63.5753ZM115.834 57.5997C115.562 59.2688 114.906 60.7536 113.861 62.0696L115.427 63.3134C116.685 61.7285 117.481 59.9261 117.808 57.9216L115.834 57.5997ZM115.355 52.3781C115.965 54.174 116.118 55.908 115.835 57.5951L117.807 57.9262C118.15 55.8857 117.956 53.8169 117.248 51.7345L115.355 52.3781ZM112.336 47.7493C113.697 48.9367 114.706 50.4694 115.355 52.3781L117.248 51.7345C116.497 49.5227 115.3 47.6818 113.651 46.2423L112.336 47.7493ZM107.614 45.4915C109.399 45.8059 110.967 46.5555 112.336 47.7493L113.651 46.2423C112.008 44.8093 110.105 43.8994 107.961 43.5218L107.614 45.4915ZM102.212 45.903C104.036 45.283 105.827 45.15 107.599 45.4889L107.975 43.5244C105.844 43.1172 103.703 43.2839 101.568 44.0094L102.212 45.903ZM97.6845 48.8615C98.9067 47.501 100.41 46.5156 102.212 45.903L101.568 44.0094C99.4523 44.7286 97.6554 45.9012 96.1967 47.5249L97.6845 48.8615ZM95.3082 53.5449C95.6858 51.7499 96.4756 50.196 97.6817 48.8646L96.1995 47.5218C94.7513 49.1204 93.8004 50.9971 93.3511 53.1332L95.3082 53.5449ZM95.7369 59.0458C95.0882 57.1371 94.9546 55.3066 95.3101 53.5359L93.3492 53.1422C92.9182 55.289 93.0915 57.4776 93.8433 59.6894L95.7369 59.0458ZM98.7703 63.7084C97.3992 62.4992 96.3856 60.9544 95.7369 59.0458L93.8433 59.6894C94.5951 61.9013 95.794 63.7503 97.4474 65.2084L98.7703 63.7084ZM103.513 65.9956C101.734 65.6556 100.154 64.8935 98.7593 63.6989L97.4584 65.2179C99.1147 66.6365 101.013 67.554 103.137 67.9601L103.513 65.9956ZM108.89 65.5512C107.084 66.1651 105.292 66.3087 103.498 65.993L103.152 67.9627C105.289 68.339 107.421 68.1628 109.534 67.4448L108.89 65.5512ZM111.505 64.2644C110.773 64.7747 109.905 65.2062 108.89 65.5512L109.534 67.4448C110.7 67.0484 111.742 66.5377 112.649 65.905L111.505 64.2644ZM97.3881 58.4846C97.9592 60.1646 98.8054 61.5779 99.9462 62.6903L101.342 61.2584C100.461 60.3992 99.768 59.2715 99.2818 57.841L97.3881 58.4846ZM96.8649 53.6145C96.6293 55.1761 96.8173 56.805 97.3881 58.4846L99.2818 57.841C98.7954 56.41 98.6625 55.1061 98.8425 53.9128L96.8649 53.6145ZM98.7621 49.5309C97.7532 50.6765 97.1237 52.0427 96.867 53.6011L98.8404 53.9261C99.0397 52.7159 99.5161 51.7009 100.263 50.8527L98.7621 49.5309ZM102.598 47.0392C101.057 47.5629 99.7676 48.3891 98.7621 49.5309L100.263 50.8527C101.013 50.0008 101.995 49.3565 103.242 48.9328L102.598 47.0392ZM107.158 46.6773C105.665 46.3847 104.139 46.5155 102.598 47.0392L103.242 48.9328C104.488 48.5091 105.659 48.4217 106.774 48.64L107.158 46.6773ZM111.12 48.7694C109.985 47.6775 108.66 46.9715 107.158 46.6773L106.774 48.64C107.879 48.8566 108.861 49.3717 109.734 50.211L111.12 48.7694ZM113.704 52.9394C113.131 51.255 112.274 49.8489 111.111 48.7601L109.744 50.2203C110.629 51.0488 111.325 52.1567 111.81 53.5829L113.704 52.9394ZM114.206 57.8564C114.456 56.2685 114.276 54.6241 113.704 52.9394L111.81 53.583C112.295 55.0088 112.422 56.3242 112.23 57.5454L114.206 57.8564ZM112.359 61.9432C113.357 60.7779 113.972 59.405 114.207 57.85L112.229 57.5517C112.048 58.7518 111.584 59.7734 110.84 60.6422L112.359 61.9432ZM108.514 64.4453C110.055 63.9216 111.345 63.0954 112.35 61.9536L110.849 60.6318C110.099 61.4837 109.117 62.128 107.871 62.5517L108.514 64.4453ZM103.954 64.8072C105.447 65.0998 106.973 64.969 108.514 64.4453L107.871 62.5517C106.624 62.9754 105.453 63.0629 104.339 62.8445L103.954 64.8072ZM99.961 62.7045C101.112 63.7818 102.443 64.4894 103.941 64.8045L104.352 62.8473C103.229 62.6111 102.225 62.0843 101.328 61.2442L99.961 62.7045ZM131.881 39.9342L137.555 56.6283L139.448 55.9847L133.775 39.2906L131.881 39.9342ZM129.696 41.7331L133.149 40.5592L132.506 38.6656L129.052 39.8395L129.696 41.7331ZM133.482 49.7659L130.321 40.4645L128.427 41.1081L131.588 50.4095L133.482 49.7659ZM133.466 54.3518C134.098 52.98 134.044 51.4186 133.482 49.7659L131.588 50.4095C132.043 51.7462 132.003 52.7484 131.65 53.5142L133.466 54.3518ZM130.221 57.1015C131.72 56.592 132.85 55.6892 133.466 54.3512L131.649 53.5148C131.306 54.2603 130.664 54.8386 129.577 55.2079L130.221 57.1015ZM125.972 56.8982C127.276 57.5837 128.722 57.6109 130.221 57.1015L129.577 55.2079C128.491 55.5771 127.629 55.5099 126.903 55.128L125.972 56.8982ZM123.196 53.2619C123.755 54.9084 124.649 56.1809 125.961 56.8922L126.914 55.1339C126.182 54.7374 125.546 53.9613 125.089 52.6183L123.196 53.2619ZM120.034 43.9605L123.196 53.2619L125.089 52.6183L121.928 43.3169L120.034 43.9605ZM117.879 45.7491L121.303 44.5855L120.659 42.6919L117.236 43.8555L117.879 45.7491ZM121.841 54.297L118.504 44.4805L116.611 45.1241L119.947 54.9406L121.841 54.297ZM123.767 57.4615C122.967 56.7278 122.315 55.6909 121.841 54.297L119.947 54.9406C120.503 56.5766 121.315 57.926 122.415 58.9351L123.767 57.4615ZM126.527 58.8007C125.511 58.6375 124.592 58.1968 123.756 57.4519L122.425 58.9448C123.529 59.929 124.795 60.5482 126.21 60.7754L126.527 58.8007ZM129.87 58.4545C128.692 58.8548 127.58 58.9611 126.519 58.7995L126.218 60.7766C127.629 60.9917 129.065 60.8402 130.513 60.3481L129.87 58.4545ZM132.106 57.1423C131.475 57.723 130.733 58.161 129.87 58.4545L130.513 60.3481C131.629 59.9689 132.615 59.3914 133.46 58.6142L132.106 57.1423ZM133.437 55.1743C133.184 55.881 132.748 56.5395 132.099 57.1495L133.468 58.607C134.322 57.805 134.949 56.8854 135.32 55.8479L133.437 55.1743ZM135.994 57.1586L135.325 55.1893L133.432 55.8328L134.101 57.8022L135.994 57.1586ZM138.18 55.3597L134.726 56.5336L135.369 58.4272L138.823 57.2533L138.18 55.3597ZM138.069 34.3077C137.681 34.4393 137.36 34.4138 137.041 34.2566L136.157 36.0507C136.974 36.4536 137.847 36.4953 138.712 36.2013L138.069 34.3077ZM138.822 33.6511C138.661 33.9788 138.426 34.1861 138.069 34.3077L138.712 36.2013C139.566 35.911 140.218 35.3439 140.616 34.535L138.822 33.6511ZM138.873 32.6231C139.005 33.0104 138.98 33.332 138.822 33.6511L140.616 34.535C141.019 33.7174 141.061 32.8445 140.767 31.9795L138.873 32.6231ZM138.207 31.8391C138.526 31.9963 138.742 32.2358 138.873 32.6231L140.767 31.9795C140.473 31.1145 139.908 30.4478 139.09 30.045L138.207 31.8391ZM137.209 31.7778C137.567 31.6562 137.879 31.6776 138.207 31.8391L139.09 30.045C138.281 29.6465 137.419 29.5939 136.565 29.8842L137.209 31.7778ZM136.425 32.4447C136.582 32.1256 136.822 31.9094 137.209 31.7778L136.565 29.8842C135.7 30.1782 135.034 30.7431 134.631 31.5608L136.425 32.4447ZM136.374 33.4727C136.242 33.0853 136.268 32.7637 136.425 32.4447L134.631 31.5608C134.228 32.3784 134.186 33.2512 134.48 34.1162L136.374 33.4727ZM137.041 34.2567C136.722 34.0995 136.505 33.86 136.374 33.4727L134.48 34.1162C134.774 34.9812 135.339 35.6479 136.157 36.0507L137.041 34.2567ZM139.892 37.2114L145.566 53.9055L147.46 53.2619L141.786 36.5678L139.892 37.2114ZM137.707 39.0103L141.161 37.8364L140.517 35.9428L137.063 37.1167L137.707 39.0103ZM144.006 54.4358L138.332 37.7417L136.438 38.3853L142.112 55.0794L144.006 54.4358ZM146.191 52.6369L142.737 53.8108L143.381 55.7044L146.835 54.5305L146.191 52.6369ZM153.472 49.1315L161.046 46.5571L160.403 44.6635L152.828 47.2379L153.472 49.1315ZM156.003 34.282L152.187 47.9151L154.113 48.4542L157.929 34.8211L156.003 34.282ZM155.061 32.0557L156.019 34.8734L157.913 34.2298L156.955 31.4121L155.061 32.0557ZM144.756 36.6143L156.33 32.6807L155.686 30.7871L144.113 34.7207L144.756 36.6143ZM146.339 38.1634L145.381 35.3457L143.488 35.9893L144.445 38.807L146.339 38.1634ZM152.675 34.9537L145.07 37.5384L145.714 39.432L153.319 36.8474L152.675 34.9537ZM150.113 49.8153L153.959 36.1719L152.034 35.6292L148.188 49.2726L150.113 49.8153ZM151.055 52.0399L150.097 49.2222L148.204 49.8658L149.162 52.6835L151.055 52.0399ZM161.36 47.4812L149.787 51.4149L150.43 53.3085L162.004 49.3748L161.36 47.4812ZM159.778 45.9321L160.735 48.7498L162.629 48.1062L161.671 45.2885L159.778 45.9321ZM161.53 24.9621L166.13 39.7904L168.04 39.1978L163.44 24.3695L161.53 24.9621ZM159.14 26.8586L162.806 25.6126L162.163 23.719L158.497 24.965L159.14 26.8586ZM165.145 40.1253L159.756 25.5647L157.881 26.2588L163.269 40.8194L165.145 40.1253ZM166.763 38.5473L163.885 39.5256L164.529 41.4192L167.407 40.4409L166.763 38.5473ZM167.665 45.5751C167.277 45.7067 166.956 45.6812 166.637 45.524L165.753 47.3181C166.57 47.7209 167.443 47.7627 168.308 47.4687L167.665 45.5751ZM168.418 44.9185C168.257 45.2462 168.022 45.4535 167.665 45.5751L168.308 47.4687C169.163 47.1783 169.814 46.6113 170.213 45.8024L168.418 44.9185ZM168.469 43.8905C168.601 44.2778 168.576 44.5994 168.418 44.9185L170.213 45.8024C170.615 44.9848 170.657 44.1119 170.363 43.2469L168.469 43.8905ZM167.803 43.1065C168.122 43.2637 168.338 43.5032 168.469 43.8905L170.363 43.2469C170.069 42.3819 169.504 41.7152 168.686 41.3124L167.803 43.1065ZM166.805 43.0452C167.163 42.9236 167.475 42.945 167.803 43.1065L168.687 41.3124C167.878 40.9139 167.016 40.8612 166.161 41.1516L166.805 43.0452ZM166.021 43.7121C166.178 43.393 166.418 43.1768 166.805 43.0452L166.161 41.1516C165.296 41.4456 164.63 42.0105 164.227 42.8281L166.021 43.7121ZM165.97 44.74C165.838 44.3527 165.864 44.0311 166.021 43.712L164.227 42.8282C163.824 43.6458 163.782 44.5186 164.076 45.3836L165.97 44.74ZM166.637 45.524C166.318 45.3668 166.102 45.1274 165.97 44.74L164.076 45.3837C164.37 46.2486 164.935 46.9153 165.753 47.3181L166.637 45.524Z" fill="black" mask="url(#path-1-outside-1)"/>
</svg>
